# xmcd CD database file
#
# Track frame offsets:
#	150
#	17420
#	26572
#	49242
#	74390
#	91352
#	105700
#
# Disc length: 2137 seconds
#
# Revision: 2
# Processed by: cddbd v1.5.1PL0 Copyright (c) Steve Scherf et al.
# Submitted via: CDex 1.51
#
DISCID=53085707
DTITLE=Roy Brown - Good rockin' tonight
DYEAR=1993
DGENRE=Rock
TTITLE0=Travelin' blues
TTITLE1=Let the four windows blows
TTITLE2=Love for a sale
TTITLE3=Boogie woogie blues
TTITLE4=Good rockin' tonight
TTITLE5=Medley: Boogie at midnight - Love don't love nobody
TTITLE6=Medley: losing hand - Tin pan alley
EXTD=YEAR: 1993
EXTT0=
EXTT1=
EXTT2=
EXTT3=
EXTT4=
EXTT5=
EXTT6=
PLAYORDER=
